<?xml version="1.0" encoding="utf-8"?>
<!-- Generator: Adobe Illustrator 17.1.0, SVG Export Plug-In . SVG Version: 6.00 Build 0)  -->
<!DOCTYPE svg PUBLIC "-//W3C//DTD SVG 1.1//EN" "http://www.w3.org/Graphics/SVG/1.1/DTD/svg11.dtd">
<svg version="1.1" id="Layer_1" xmlns="http://www.w3.org/2000/svg" xmlns:xlink="http://www.w3.org/1999/xlink" x="0px" y="0px"
	 viewBox="0 0 612 792" enable-background="new 0 0 612 792" xml:space="preserve">
<g id="Layer_1_1_" display="none">
	<g id="Ia8gLY_1_" display="inline">
	</g>
</g>
<g id="Layer_2">
	<g>
		<path fill="#FDFDFE" d="M47.1,42.3c-6,0-10.8-4.8-10.8-10.8c0-2.5,0.9-4.9,2.3-6.7c-3.3,1.8-5.5,5.4-5.5,9.4
			c0,6,4.8,10.8,10.8,10.8c3.4,0,6.5-1.6,8.5-4.1C50.7,41.8,48.9,42.3,47.1,42.3z"/>
		<g>
			<path fill="#FDFDFE" d="M26.7,73.1c-0.2,0-0.4,0-0.6-0.1c-0.2-0.1-0.3-0.2-0.5-0.3c-0.1-0.1-0.2-0.3-0.3-0.5
				c-0.1-0.2-0.1-0.4-0.1-0.6l0,0c0-0.2,0-0.4,0.1-0.6s0.2-0.4,0.3-0.5c0.1-0.1,0.3-0.2,0.5-0.3c0.2-0.1,0.4-0.1,0.6-0.1
				c0.1,0,0.3,0,0.4,0c0.1,0,0.2,0,0.3,0.1c0.1,0,0.2,0.1,0.3,0.1s0.1,0.1,0.2,0.2l-0.3,0.4c-0.1-0.1-0.2-0.2-0.4-0.3
				c-0.1-0.1-0.3-0.1-0.4-0.1c-0.1,0-0.3,0-0.4,0.1c-0.1,0-0.2,0.1-0.3,0.2c-0.1,0.1-0.1,0.2-0.2,0.3c0,0.1-0.1,0.3-0.1,0.4l0,0
				c0,0.1,0,0.3,0.1,0.4s0.1,0.2,0.2,0.3c0.1,0.1,0.2,0.2,0.3,0.2s0.2,0.1,0.4,0.1c0.2,0,0.3,0,0.5-0.1c0.1-0.1,0.3-0.2,0.4-0.3
				l0.3,0.3c-0.1,0.1-0.2,0.1-0.2,0.2s-0.2,0.1-0.3,0.2c-0.1,0-0.2,0.1-0.3,0.1C26.9,73.1,26.8,73.1,26.7,73.1z"/>
			<path fill="#FDFDFE" d="M28.4,70.1h1.3c0.2,0,0.4,0,0.5,0.1c0.1,0,0.3,0.1,0.4,0.2c0.1,0.1,0.1,0.2,0.2,0.3
				c0,0.1,0.1,0.2,0.1,0.4l0,0c0,0.2-0.1,0.4-0.2,0.6c-0.1,0.1-0.3,0.3-0.5,0.3l0.8,1.1h-0.6l-0.7-1h-0.6v1h-0.5L28.4,70.1
				L28.4,70.1z M29.7,71.6c0.2,0,0.3,0,0.4-0.1c0.1-0.1,0.2-0.2,0.2-0.4l0,0c0-0.2,0-0.3-0.2-0.4c-0.1-0.1-0.3-0.1-0.4-0.1h-0.8v1
				L29.7,71.6L29.7,71.6z"/>
			<path fill="#FDFDFE" d="M31.5,70.1h2.2v0.5H32v0.8h1.5v0.5H32v0.8h1.7v0.5h-2.2L31.5,70.1L31.5,70.1z"/>
			<path fill="#FDFDFE" d="M35.3,73.1c-0.2,0-0.4,0-0.6-0.1c-0.2-0.1-0.4-0.2-0.6-0.4l0.3-0.4c0.1,0.1,0.3,0.2,0.4,0.3
				c0.1,0.1,0.3,0.1,0.5,0.1c0.2,0,0.3,0,0.4-0.1s0.1-0.2,0.1-0.3l0,0c0,0,0-0.1,0-0.1c0,0,0-0.1-0.1-0.1c0,0-0.1-0.1-0.2-0.1
				c-0.1,0-0.2-0.1-0.3-0.1c-0.2,0-0.3-0.1-0.4-0.1s-0.2-0.1-0.3-0.2c-0.1-0.1-0.1-0.1-0.2-0.2c0-0.1-0.1-0.2-0.1-0.4l0,0
				c0-0.1,0-0.2,0.1-0.4c0-0.1,0.1-0.2,0.2-0.3c0.1-0.1,0.2-0.1,0.3-0.2c0.1,0,0.3-0.1,0.4-0.1c0.2,0,0.4,0,0.6,0.1
				c0.2,0.1,0.3,0.2,0.5,0.3l-0.3,0.4c-0.1-0.1-0.3-0.2-0.4-0.2s-0.3-0.1-0.4-0.1c-0.1,0-0.3,0-0.4,0.1c-0.1,0.1-0.1,0.1-0.1,0.2
				l0,0c0,0,0,0.1,0,0.1c0,0,0,0.1,0.1,0.1c0,0,0.1,0.1,0.2,0.1c0.1,0,0.2,0.1,0.4,0.1c0.2,0,0.3,0.1,0.4,0.1c0.1,0,0.2,0.1,0.3,0.2
				c0.1,0.1,0.1,0.1,0.2,0.2c0,0.1,0,0.2,0,0.3l0,0c0,0.1,0,0.3-0.1,0.4c0,0.1-0.1,0.2-0.2,0.3c-0.1,0.1-0.2,0.1-0.3,0.2
				C35.6,73.1,35.4,73.1,35.3,73.1z"/>
			<path fill="#FDFDFE" d="M38.3,73.1c-0.2,0-0.4,0-0.6-0.1c-0.2-0.1-0.3-0.2-0.5-0.3s-0.2-0.3-0.3-0.5c-0.1-0.2-0.1-0.4-0.1-0.6
				l0,0c0-0.2,0-0.4,0.1-0.6c0.1-0.2,0.2-0.4,0.3-0.5c0.1-0.1,0.3-0.2,0.5-0.3c0.2-0.1,0.4-0.1,0.6-0.1c0.1,0,0.3,0,0.4,0
				c0.1,0,0.2,0,0.3,0.1c0.1,0,0.2,0.1,0.3,0.1c0.1,0,0.1,0.1,0.2,0.2l-0.3,0.4c-0.1-0.1-0.2-0.2-0.4-0.3c-0.1-0.1-0.3-0.1-0.4-0.1
				c-0.1,0-0.3,0-0.4,0.1c-0.1,0-0.2,0.1-0.3,0.2c-0.1,0.1-0.1,0.2-0.2,0.3c0,0.1-0.1,0.3-0.1,0.4l0,0c0,0.1,0,0.3,0.1,0.4
				c0,0.1,0.1,0.2,0.2,0.3c0.1,0.1,0.2,0.2,0.3,0.2s0.2,0.1,0.4,0.1c0.2,0,0.3,0,0.5-0.1c0.1-0.1,0.3-0.2,0.4-0.3l0.3,0.3
				c-0.1,0.1-0.2,0.1-0.2,0.2c-0.1,0.1-0.2,0.1-0.3,0.2c-0.1,0-0.2,0.1-0.3,0.1C38.6,73.1,38.4,73.1,38.3,73.1z"/>
			<path fill="#FDFDFE" d="M40,70.1h2.2v0.5h-1.7v0.8H42v0.5h-1.5v0.8h1.7v0.5H40L40,70.1L40,70.1z"/>
			<path fill="#FDFDFE" d="M42.8,70.1h0.5l1.6,2v-2h0.5V73H45L43.3,71V73h-0.5L42.8,70.1L42.8,70.1z"/>
			<path fill="#FDFDFE" d="M46.9,70.6h-0.9v-0.5h2.4v0.5h-0.9V73h-0.5V70.6z"/>
			<path fill="#FDFDFE" d="M48.7,70.1h0.2l0.9,2.6l0.8-2.6h0.2l0.8,2.6l0.9-2.6h0.2l-1.1,3h-0.2l-0.8-2.5l-0.8,2.5h-0.2L48.7,70.1z"
				/>
			<path fill="#FDFDFE" d="M53.5,70.1h0.2V73h-0.2V70.1z"/>
			<path fill="#FDFDFE" d="M54.7,70.1h0.2l2,2.5v-2.5h0.2V73H57l-2.1-2.6V73h-0.2L54.7,70.1L54.7,70.1z"/>
			<path fill="#FDFDFE" d="M58,70.1h2.1v0.2h-1.9v1.2h1.7v0.2h-1.7v1.2h1.9V73H58V70.1z"/>
		</g>
		<path fill="#FDFDFE" d="M41.4,63.6V46.2c0,0,1.2,0.5,2.7,0.2v17.2c0,0-0.1,3.7,7.6,4.1H33.6C33.6,67.7,41.4,67.3,41.4,63.6z"/>
	</g>
</g>
</svg>
