<?xml version="1.0" encoding="utf-8"?>
<!-- Generator: Adobe Illustrator 17.1.0, SVG Export Plug-In . SVG Version: 6.00 Build 0)  -->
<!DOCTYPE svg PUBLIC "-//W3C//DTD SVG 1.1//EN" "http://www.w3.org/Graphics/SVG/1.1/DTD/svg11.dtd">
<svg version="1.1" id="Layer_1" xmlns="http://www.w3.org/2000/svg" xmlns:xlink="http://www.w3.org/1999/xlink" x="0px" y="0px"
	 viewBox="0 0 612 792" enable-background="new 0 0 612 792" xml:space="preserve">
<g id="Layer_1_1_" display="none">
	<g id="Ia8gLY_1_" display="inline">
		
			<image overflow="visible" enable-background="new    " width="598" height="598" id="Ia8gLY_2_" xlink:href="B1E3C82BC8F6B3A6.png"  transform="matrix(1 0 0 1 7 97)">
		</image>
	</g>
</g>
<g id="Layer_2">
	<g>
		<path fill="#FDFDFE" d="M324.6,363.3c-25.3,0-45.8-20.5-45.8-45.8c0-10.7,3.7-20.6,9.8-28.4c-14,7.8-23.5,22.8-23.5,40
			c0,25.3,20.5,45.8,45.8,45.8c14.6,0,27.6-6.8,36-17.5C340.2,361.2,332.6,363.3,324.6,363.3z"/>
		<g>
			<path fill="#FDFDFE" d="M238.3,493.7c-0.9,0-1.8-0.2-2.5-0.5c-0.8-0.3-1.4-0.8-2-1.4s-1-1.3-1.3-2c-0.3-0.8-0.5-1.6-0.5-2.5l0,0
				c0-0.9,0.2-1.7,0.5-2.5s0.8-1.5,1.3-2c0.6-0.6,1.2-1,2-1.4c0.8-0.3,1.6-0.5,2.6-0.5c0.6,0,1.1,0,1.6,0.1s0.9,0.2,1.3,0.4
				c0.4,0.2,0.8,0.4,1.1,0.6s0.6,0.5,0.9,0.8l-1.4,1.6c-0.5-0.5-1-0.8-1.6-1.1c-0.6-0.3-1.2-0.4-1.9-0.4c-0.6,0-1.1,0.1-1.6,0.3
				c-0.5,0.2-0.9,0.5-1.3,0.9c-0.4,0.4-0.6,0.9-0.9,1.4c-0.2,0.5-0.3,1.1-0.3,1.7l0,0c0,0.6,0.1,1.2,0.3,1.7s0.5,1,0.9,1.4
				s0.8,0.7,1.3,0.9c0.5,0.2,1,0.3,1.6,0.3c0.8,0,1.4-0.1,2-0.4c0.5-0.3,1.1-0.7,1.6-1.2l1.4,1.4c-0.3,0.3-0.7,0.6-1,0.9
				s-0.7,0.5-1.1,0.7c-0.4,0.2-0.8,0.3-1.3,0.4C239.4,493.7,238.9,493.7,238.3,493.7z"/>
			<path fill="#FDFDFE" d="M245.6,481.1h5.5c0.8,0,1.5,0.1,2.1,0.3c0.6,0.2,1.1,0.5,1.5,0.9c0.3,0.3,0.6,0.7,0.8,1.2
				c0.2,0.4,0.3,0.9,0.3,1.5l0,0c0,1-0.3,1.8-0.8,2.5c-0.6,0.6-1.3,1.1-2.1,1.3l3.4,4.7h-2.6l-3.1-4.3h-2.7v4.3h-2.2v-12.4H245.6z
				 M251,487.3c0.8,0,1.4-0.2,1.9-0.6s0.7-0.9,0.7-1.5l0,0c0-0.7-0.2-1.2-0.7-1.5c-0.4-0.3-1.1-0.5-1.9-0.5h-3.2v4.2h3.2V487.3z"/>
			<path fill="#FDFDFE" d="M258.5,481.1h9.2v2h-7v3.2h6.2v2h-6.2v3.3h7.1v2h-9.3L258.5,481.1L258.5,481.1z"/>
			<path fill="#FDFDFE" d="M274.7,493.7c-1,0-1.9-0.2-2.7-0.5c-0.9-0.3-1.7-0.8-2.4-1.5l1.3-1.6c0.6,0.5,1.2,0.9,1.8,1.2
				c0.6,0.3,1.3,0.4,2.1,0.4c0.7,0,1.2-0.1,1.6-0.4s0.6-0.7,0.6-1.1l0,0c0-0.2,0-0.4-0.1-0.6s-0.2-0.3-0.4-0.5
				c-0.2-0.2-0.5-0.3-0.9-0.4s-0.8-0.3-1.4-0.4c-0.7-0.2-1.3-0.3-1.8-0.5s-0.9-0.4-1.3-0.7c-0.3-0.3-0.6-0.6-0.8-1
				c-0.2-0.4-0.3-0.9-0.3-1.5l0,0c0-0.5,0.1-1,0.3-1.5c0.2-0.4,0.5-0.8,0.9-1.1c0.4-0.3,0.8-0.6,1.3-0.7c0.5-0.2,1.1-0.3,1.7-0.3
				c0.9,0,1.7,0.1,2.5,0.4c0.7,0.3,1.4,0.7,2,1.2l-1.2,1.6c-0.6-0.4-1.1-0.7-1.7-0.9c-0.6-0.2-1.1-0.3-1.7-0.3s-1.1,0.1-1.5,0.4
				s-0.5,0.6-0.5,1l0,0c0,0.2,0,0.4,0.1,0.6s0.2,0.3,0.5,0.5c0.2,0.1,0.5,0.3,0.9,0.4s0.9,0.3,1.5,0.4c0.7,0.2,1.2,0.3,1.7,0.6
				c0.5,0.2,0.9,0.4,1.3,0.7c0.3,0.3,0.6,0.6,0.8,1c0.2,0.4,0.2,0.8,0.2,1.3l0,0c0,0.6-0.1,1.1-0.3,1.6c-0.2,0.5-0.5,0.9-0.9,1.2
				c-0.4,0.3-0.9,0.6-1.4,0.7C276,493.6,275.4,493.7,274.7,493.7z"/>
			<path fill="#FDFDFE" d="M287.5,493.7c-0.9,0-1.8-0.2-2.5-0.5c-0.8-0.3-1.4-0.8-2-1.4s-1-1.3-1.3-2c-0.3-0.8-0.5-1.6-0.5-2.5l0,0
				c0-0.9,0.2-1.7,0.5-2.5s0.8-1.5,1.3-2c0.6-0.6,1.2-1,2-1.4c0.8-0.3,1.6-0.5,2.6-0.5c0.6,0,1.1,0,1.6,0.1s0.9,0.2,1.3,0.4
				c0.4,0.2,0.8,0.4,1.1,0.6c0.3,0.2,0.6,0.5,0.9,0.8l-1.4,1.6c-0.5-0.5-1-0.8-1.6-1.1c-0.6-0.3-1.2-0.4-1.9-0.4
				c-0.6,0-1.1,0.1-1.6,0.3c-0.5,0.2-0.9,0.5-1.3,0.9s-0.6,0.9-0.9,1.4c-0.2,0.5-0.3,1.1-0.3,1.7l0,0c0,0.6,0.1,1.2,0.3,1.7
				c0.2,0.5,0.5,1,0.9,1.4s0.8,0.7,1.3,0.9c0.5,0.2,1,0.3,1.6,0.3c0.8,0,1.4-0.1,2-0.4c0.5-0.3,1.1-0.7,1.6-1.2l1.4,1.4
				c-0.3,0.3-0.7,0.6-1,0.9s-0.7,0.5-1.1,0.7s-0.8,0.3-1.3,0.4C288.6,493.7,288.1,493.7,287.5,493.7z"/>
			<path fill="#FDFDFE" d="M294.8,481.1h9.2v2h-7v3.2h6.2v2H297v3.3h7.1v2h-9.3L294.8,481.1L294.8,481.1z"/>
			<path fill="#FDFDFE" d="M306.7,481.1h2l6.7,8.6v-8.6h2.1v12.4h-1.8l-6.8-8.8v8.8h-2.1v-12.4H306.7z"/>
			<path fill="#FDFDFE" d="M323.8,483.1h-3.9v-2H330v2h-4v10.4h-2.2V483.1z"/>
			<path fill="#FDFDFE" d="M331.5,481.1h1l3.9,11.1l3.6-11.1h0.7l3.6,11.1l3.9-11.1h1l-4.5,12.5H344l-3.6-10.8l-3.6,10.8H336
				L331.5,481.1z"/>
			<path fill="#FDFDFE" d="M352.1,481.1h0.9v12.4h-0.9V481.1z"/>
			<path fill="#FDFDFE" d="M356.9,481.1h0.9l8.6,10.8v-10.8h0.9v12.4h-0.7l-8.7-11v11H357L356.9,481.1L356.9,481.1z"/>
			<path fill="#FDFDFE" d="M370.9,481.1h8.8v0.8h-7.9v4.9h7.1v0.8h-7.1v5h8v0.8h-8.9V481.1z"/>
		</g>
		<path fill="#FDFDFE" d="M300.7,453.5v-73.6c0,0,5.1,2,11.4,0.7v72.9c0,0-0.6,15.7,32.2,17.2h-76.7
			C267.6,470.7,300.7,469.1,300.7,453.5z"/>
	</g>
</g>
</svg>
