<?xml version="1.0" encoding="utf-8"?>
<!-- Generator: Adobe Illustrator 17.1.0, SVG Export Plug-In . SVG Version: 6.00 Build 0)  -->
<!DOCTYPE svg PUBLIC "-//W3C//DTD SVG 1.1//EN" "http://www.w3.org/Graphics/SVG/1.1/DTD/svg11.dtd">
<svg version="1.1" id="Layer_1" xmlns="http://www.w3.org/2000/svg" xmlns:xlink="http://www.w3.org/1999/xlink" x="0px" y="0px"
	 viewBox="0 0 66 85.4" enable-background="new 0 0 66 85.4" xml:space="preserve">
<g id="Layer_1_1_" display="none">
	<g id="Ia8gLY_1_" display="inline">
	</g>
</g>
<g id="Layer_2">
	<g>
		<path fill="#231F20" d="M38.1,29.2c-6.9,0-12.4-5.5-12.4-12.4c0-2.8,1.1-5.7,2.7-7.7c-3.8,2.1-6.4,6.2-6.4,10.8
			c0,6.9,5.5,12.4,12.4,12.4c3.9,0,7.5-1.8,9.8-4.7C42.4,28.7,40.3,29.2,38.1,29.2z"/>
		<g>
			<path fill="#231F20" d="M14.6,64.7c-0.2,0-0.5,0-0.7-0.1c-0.2-0.1-0.4-0.2-0.6-0.4c-0.1-0.1-0.2-0.4-0.4-0.6
				c-0.1-0.2-0.1-0.5-0.1-0.7l0,0c0-0.2,0-0.5,0.1-0.7s0.2-0.5,0.4-0.6c0.1-0.1,0.4-0.2,0.6-0.4c0.2-0.1,0.5-0.1,0.7-0.1
				c0.1,0,0.4,0,0.5,0c0.1,0,0.2,0,0.4,0.1c0.1,0,0.2,0.1,0.4,0.1c0.1,0,0.1,0.1,0.2,0.2L15.7,62c-0.1-0.1-0.2-0.2-0.5-0.4
				c-0.1-0.1-0.4-0.1-0.5-0.1s-0.4,0-0.5,0.1c-0.1,0.1-0.2,0.1-0.4,0.2c-0.1,0.1-0.1,0.2-0.2,0.4c0,0.1-0.1,0.4-0.1,0.5l0,0
				c0,0.1,0,0.4,0.1,0.5c0,0.1,0.1,0.2,0.2,0.4c0.1,0.1,0.2,0.2,0.4,0.2c0.2,0,0.2,0.1,0.5,0.1c0.2,0,0.4,0,0.6-0.1
				c0.1-0.1,0.4-0.2,0.5-0.4l0.4,0.4C16.2,63.9,16,63.9,16,64c-0.1,0.1-0.2,0.1-0.4,0.2c-0.1,0-0.2,0.1-0.4,0.1
				C15,64.7,14.9,64.7,14.6,64.7z"/>
			<path fill="#231F20" d="M16.7,61.2h1.5c0.2,0,0.5,0,0.6,0.1c0.1,0,0.4,0.1,0.5,0.2c0.1,0.1,0.1,0.2,0.2,0.4
				c0,0.1,0.1,0.2,0.1,0.5l0,0c0,0.2-0.1,0.5-0.2,0.7c-0.1,0.1-0.4,0.4-0.6,0.4l0.9,1.3h-0.7l-0.8-1.1h-0.7v1.1h-0.6L16.7,61.2
				L16.7,61.2z M18.1,63c0.2,0,0.4,0,0.5-0.1c0.1-0.1,0.2-0.2,0.2-0.5l0,0c0-0.2,0-0.4-0.2-0.5c-0.1-0.1-0.4-0.1-0.5-0.1h-0.9V63
				L18.1,63L18.1,63z"/>
			<path fill="#231F20" d="M20.1,61.2h2.5v0.6h-2v0.9h1.8v0.6h-1.8v0.9h2v0.6h-2.5L20.1,61.2L20.1,61.2z"/>
			<path fill="#231F20" d="M24.6,64.7c-0.2,0-0.5,0-0.7-0.1s-0.5-0.2-0.7-0.5l0.4-0.5c0.1,0.1,0.4,0.2,0.5,0.4
				c0.1,0.2,0.4,0.1,0.6,0.1c0.2,0,0.4,0,0.5-0.1s0.1-0.2,0.1-0.4l0,0v-0.1c0,0,0-0.1-0.1-0.1c0,0-0.1-0.1-0.2-0.1
				c-0.1,0-0.2-0.1-0.4-0.1c-0.2,0-0.4-0.1-0.5-0.1s-0.2-0.1-0.4-0.2c-0.1-0.1-0.1-0.1-0.2-0.2c0-0.1-0.1-0.2-0.1-0.5l0,0
				c0-0.1,0-0.2,0.1-0.5c0-0.1,0.1-0.2,0.2-0.4c0.1-0.2,0.2-0.1,0.4-0.2c0.1,0,0.4-0.1,0.5-0.1c0.2,0,0.5,0,0.7,0.1
				c0.2,0.1,0.4,0.2,0.6,0.4l-0.4,0.5C25.3,62.1,25,62,25,62s-0.4-0.1-0.5-0.1s-0.4,0-0.5,0.1S24,62,24,62.2l0,0v0.1
				c0,0,0,0.1,0.1,0.1c0,0,0.1,0.1,0.2,0.1c0.1,0,0.2,0.1,0.5,0.1c0.2,0,0.4,0.1,0.5,0.1s0.2,0.1,0.4,0.2c0.1,0.1,0.1,0.1,0.2,0.2
				c0,0.1,0,0.2,0,0.4l0,0c0,0.1,0,0.4-0.1,0.5c0,0.1-0.1,0.2-0.2,0.4c-0.1,0.2-0.2,0.1-0.4,0.2C24.9,64.6,24.7,64.7,24.6,64.7z"/>
			<path fill="#231F20" d="M28.1,64.7c-0.2,0-0.5,0-0.7-0.1s-0.4-0.2-0.6-0.4c-0.1-0.1-0.2-0.4-0.4-0.6c-0.1-0.2-0.1-0.5-0.1-0.7
				l0,0c0-0.2,0-0.5,0.1-0.7c0.1-0.2,0.2-0.5,0.4-0.6c0.1-0.1,0.4-0.2,0.6-0.4c0.2-0.2,0.5-0.1,0.7-0.1c0.1,0,0.4,0,0.5,0
				s0.2,0,0.4,0.1c0.1,0,0.2,0.1,0.4,0.1c0.1,0,0.1,0.1,0.2,0.2L29.2,62c-0.1-0.1-0.2-0.2-0.5-0.4c-0.1-0.1-0.4-0.1-0.5-0.1
				c-0.1,0-0.4,0-0.5,0.1c-0.1,0.1-0.2,0.1-0.4,0.2c-0.1,0.1-0.1,0.2-0.2,0.4c0,0.1-0.1,0.4-0.1,0.5l0,0c0,0.1,0,0.4,0.1,0.5
				c0,0.1,0.1,0.2,0.2,0.4c0.1,0.1,0.2,0.2,0.4,0.2c0.2,0,0.2,0.1,0.5,0.1c0.2,0,0.4,0,0.6-0.1c0.1-0.1,0.4-0.2,0.5-0.4l0.4,0.4
				c-0.1,0.1-0.2,0.1-0.2,0.2c-0.1,0.1-0.2,0.1-0.4,0.2c-0.1,0-0.2,0.1-0.4,0.1C28.3,64.7,28.3,64.7,28.1,64.7z"/>
			<path fill="#231F20" d="M30.1,61.2h2.5v0.6h-2v0.9h1.8v0.6h-1.8v0.9h2v0.6h-2.5V61.2L30.1,61.2z"/>
			<path fill="#231F20" d="M33.3,61.2h0.6l1.8,2.3v-2.3h0.5v3.4h-0.5L34,62.1v2.4h-0.7V61.2L33.3,61.2z"/>
			<path fill="#231F20" d="M37.9,61.8h-1.1v-0.6h2.8v0.6h-1v2.8h-0.7V61.8L37.9,61.8z"/>
			<path fill="#231F20" d="M40,61.2h0.2l1.1,3l0.9-3h0.2l0.9,3l1.1-3h0.2l-1.4,3.4h-0.2l-0.9-2.8l-0.9,2.8H41L40,61.2z"/>
			<path fill="#231F20" d="M45.6,61.2h0.2v3.4h-0.2V61.2z"/>
			<path fill="#231F20" d="M46.8,61.2h0.2l2.3,2.8v-2.8h0.2v3.4h-0.2L47,61.5v3h-0.2L46.8,61.2L46.8,61.2z"/>
			<path fill="#231F20" d="M50.7,61.2h2.4v0.2H51v1.4h2V63h-2v1.4h2.1v0.2h-2.4V61.2z"/>
		</g>
		<path fill="#231F20" d="M31.7,53.8v-20c0,0,1.4,0.6,3.1,0.2v19.8c0,0-0.1,4.3,8.7,4.7H22.7C22.7,58.4,31.7,58,31.7,53.8z"/>
	</g>
</g>
</svg>
