<?xml version="1.0" encoding="utf-8"?>
<!-- Generator: Adobe Illustrator 17.1.0, SVG Export Plug-In . SVG Version: 6.00 Build 0)  -->
<!DOCTYPE svg PUBLIC "-//W3C//DTD SVG 1.1//EN" "http://www.w3.org/Graphics/SVG/1.1/DTD/svg11.dtd">
<svg version="1.1" id="Layer_1" xmlns="http://www.w3.org/2000/svg" xmlns:xlink="http://www.w3.org/1999/xlink" x="0px" y="0px"
	 viewBox="243 295.2 148 191.5" enable-background="new 243 295.2 148 191.5" xml:space="preserve">
<g id="Layer_1_1_" display="none">
	<g id="Ia8gLY_1_" display="inline">
	</g>
</g>
<g id="Layer_2">
	<g>
		<path fill="#231F20" d="M336.3,358.4c-19.1,0-34.3-15.3-34.3-34.3c0-7.9,2.9-15.6,7.3-21.3c-10.5,5.7-17.5,17.2-17.5,29.9
			c0,19.1,15.3,34.3,34.3,34.3c10.8,0,20.7-5.1,27-13C348.1,356.8,342.3,358.4,336.3,358.4z"/>
		<g>
			<path fill="#231F20" d="M271.5,456.3c-0.6,0-1.3,0-1.9-0.3c-0.6-0.3-1-0.6-1.6-1c-0.3-0.3-0.6-1-1-1.6c-0.3-0.6-0.3-1.3-0.3-1.9
				l0,0c0-0.6,0-1.3,0.3-1.9c0.3-0.6,0.6-1.3,1-1.6c0.3-0.3,1-0.6,1.6-1c0.6-0.3,1.3-0.3,1.9-0.3c0.3,0,1,0,1.3,0s0.6,0,1,0.3
				c0.3,0,0.6,0.3,1,0.3c0.3,0,0.3,0.3,0.6,0.6l-1,1.3c-0.3-0.3-0.6-0.6-1.3-1c-0.3-0.3-1-0.3-1.3-0.3s-1,0-1.3,0.3s-0.6,0.3-1,0.6
				c-0.3,0.3-0.3,0.6-0.6,1c0,0.3-0.3,1-0.3,1.3l0,0c0,0.3,0,1,0.3,1.3c0,0.3,0.3,0.6,0.6,1c0.3,0.3,0.6,0.6,1,0.6s0.6,0.3,1.3,0.3
				c0.6,0,1,0,1.6-0.3c0.3-0.3,1-0.6,1.3-1l1,1c-0.3,0.3-0.6,0.3-0.6,0.6c-0.3,0.3-0.6,0.3-1,0.6c-0.3,0-0.6,0.3-1,0.3
				C272.4,456.3,272.1,456.3,271.5,456.3z"/>
			<path fill="#231F20" d="M277.2,446.7h4.1c0.6,0,1.3,0,1.6,0.3c0.3,0,1,0.3,1.3,0.6c0.3,0.3,0.3,0.6,0.6,1c0,0.3,0.3,0.6,0.3,1.3
				l0,0c0,0.6-0.3,1.3-0.6,1.9c-0.3,0.3-1,1-1.6,1l2.5,3.5h-1.9l-2.2-3.2h-1.9v3.2h-1.6L277.2,446.7L277.2,446.7z M281,451.5
				c0.6,0,1,0,1.3-0.3s0.6-0.6,0.6-1.3l0,0c0-0.6,0-1-0.6-1.3c-0.3-0.3-1-0.3-1.3-0.3h-2.5v3.2H281L281,451.5z"/>
			<path fill="#231F20" d="M286.7,446.7h7v1.6h-5.4v2.5h4.8v1.6h-4.8v2.5h5.4v1.6h-7V446.7L286.7,446.7z"/>
			<path fill="#231F20" d="M298.8,456.3c-0.6,0-1.3,0-1.9-0.3s-1.3-0.6-1.9-1.3l1-1.3c0.3,0.3,1,0.6,1.3,1s1,0.3,1.6,0.3
				s1,0,1.3-0.3s0.3-0.6,0.3-1l0,0v-0.3c0,0,0-0.3-0.3-0.3c0,0-0.3-0.3-0.6-0.3s-0.6-0.3-1-0.3c-0.6,0-1-0.3-1.3-0.3s-0.6-0.3-1-0.6
				c-0.3-0.3-0.3-0.3-0.6-0.6c0-0.3-0.3-0.6-0.3-1.3l0,0c0-0.3,0-0.6,0.3-1.3c0-0.3,0.3-0.6,0.6-1s0.6-0.3,1-0.6
				c0.3,0,1-0.3,1.3-0.3c0.6,0,1.3,0,1.9,0.3c0.6,0.3,1,0.6,1.6,1l-1,1.3c-0.3-0.3-1-0.6-1.3-0.6c-0.3,0-1-0.3-1.3-0.3s-1,0-1.3,0.3
				c-0.3,0.3-0.3,0.3-0.3,0.6l0,0v0.3c0,0,0,0.3,0.3,0.3c0,0,0.3,0.3,0.6,0.3s0.6,0.3,1.3,0.3s1,0.3,1.3,0.3s0.6,0.3,1,0.6
				c0.3,0.3,0.3,0.3,0.6,0.6c0,0.3,0,0.6,0,1l0,0c0,0.3,0,1-0.3,1.3c0,0.3-0.3,0.6-0.6,1s-0.6,0.3-1,0.6
				C299.8,456,299.4,456.3,298.8,456.3z"/>
			<path fill="#231F20" d="M308.7,456.3c-0.6,0-1.3,0-1.9-0.3s-1-0.6-1.6-1c-0.3-0.3-0.6-1-1-1.6c-0.3-0.6-0.3-1.3-0.3-1.9l0,0
				c0-0.6,0-1.3,0.3-1.9c0.3-0.6,0.6-1.3,1-1.6c0.3-0.3,1-0.6,1.6-1s1.3-0.3,1.9-0.3c0.3,0,1,0,1.3,0c0.3,0,0.6,0,1,0.3
				c0.3,0,0.6,0.3,1,0.3c0.3,0,0.3,0.3,0.6,0.6l-1,1.3c-0.3-0.3-0.6-0.6-1.3-1c-0.3-0.3-1-0.3-1.3-0.3c-0.3,0-1,0-1.3,0.3
				s-0.6,0.3-1,0.6c-0.3,0.3-0.3,0.6-0.6,1c0,0.3-0.3,1-0.3,1.3l0,0c0,0.3,0,1,0.3,1.3c0,0.3,0.3,0.6,0.6,1c0.3,0.3,0.6,0.6,1,0.6
				s0.6,0.3,1.3,0.3s1,0,1.6-0.3c0.3-0.3,1-0.6,1.3-1l1,1c-0.3,0.3-0.6,0.3-0.6,0.6c-0.3,0.3-0.6,0.3-1,0.6c-0.3,0-0.6,0.3-1,0.3
				C309.3,456.3,309,456.3,308.7,456.3z"/>
			<path fill="#231F20" d="M314.1,446.7h7v1.6h-5.4v2.5h4.8v1.6h-4.8v2.5h5.4v1.6h-7V446.7L314.1,446.7z"/>
			<path fill="#231F20" d="M323,446.7h1.6l5.1,6.4v-6.4h1.6v9.2h-1.3l-5.1-6.7v6.7H323V446.7L323,446.7z"/>
			<path fill="#231F20" d="M335.7,448.3h-2.9v-1.6h7.6v1.6h-2.9v7.9h-1.9V448.3z"/>
			<path fill="#231F20" d="M341.4,446.7h0.6l2.9,8.3l2.5-8.3h0.6l2.5,8.3l2.9-8.3h0.6l-3.5,9.5H350l-2.5-7.9l-2.5,7.9h-0.6
				L341.4,446.7z"/>
			<path fill="#231F20" d="M357,446.7h0.6v9.2H357V446.7z"/>
			<path fill="#231F20" d="M360.5,446.7h0.6l6.4,7.9v-7.9h0.6v9.2h-0.6l-6.7-8.3v8.3h-0.6L360.5,446.7L360.5,446.7z"/>
			<path fill="#231F20" d="M370.9,446.7h6.7v0.6h-6v3.8h5.4v0.6h-5.4v3.8h6v0.6h-6.7V446.7z"/>
		</g>
		<path fill="#231F20" d="M318.5,426.1v-55.3c0,0,3.8,1.6,8.6,0.6v54.7c0,0-0.3,11.8,24.1,13h-57.5
			C293.7,438.8,318.5,437.8,318.5,426.1z"/>
	</g>
</g>
</svg>
