<?xml version="1.0" encoding="utf-8"?>
<!-- Generator: Adobe Illustrator 17.1.0, SVG Export Plug-In . SVG Version: 6.00 Build 0)  -->
<!DOCTYPE svg PUBLIC "-//W3C//DTD SVG 1.1//EN" "http://www.w3.org/Graphics/SVG/1.1/DTD/svg11.dtd">
<svg version="1.1" id="Layer_1" xmlns="http://www.w3.org/2000/svg" xmlns:xlink="http://www.w3.org/1999/xlink" x="0px" y="0px"
	 viewBox="0 0 612 792" enable-background="new 0 0 612 792" xml:space="preserve">
<g id="Layer_1_1_" display="none">
	<g id="Ia8gLY_1_" display="inline">
	</g>
</g>
<g>
	<path fill="#231F20" d="M363.8,270.8c-64,0-115-51-115-115c0-26,10.2-52.9,25-71.4c-35.2,19.5-59.3,57.5-59.3,100.1
		c0,64,51,115,115,115c36.2,0,69.5-16.7,90.9-43.6C403.6,266.2,384.2,270.8,363.8,270.8z"/>
	<path fill="#231F20" d="M304.4,498.9V313.5c0,0,13,5.6,28.7,1.9v183.6c0,0-0.9,39.9,80.7,43.6H221
		C221,541.6,304.4,537.9,304.4,498.9z"/>
</g>
<g>
	<path d="M85.3,602c-3.1,0-6-0.6-8.6-1.7c-2.6-1.2-4.9-2.7-6.9-4.7c-1.9-2-3.4-4.4-4.5-7.1c-1.1-2.7-1.6-5.6-1.6-8.7v-0.1
		c0-3,0.5-5.9,1.6-8.6c1.1-2.7,2.6-5.1,4.5-7.1c1.9-2,4.2-3.6,6.9-4.8c2.7-1.2,5.6-1.8,8.8-1.8c2,0,3.8,0.2,5.3,0.5
		c1.6,0.3,3.1,0.8,4.4,1.4c1.4,0.6,2.6,1.3,3.8,2.2c1.2,0.8,2.3,1.8,3.3,2.8l-3.3,3.6c-1.9-1.7-3.8-3.1-6-4.3
		c-2.1-1.1-4.7-1.7-7.6-1.7c-2.4,0-4.6,0.5-6.6,1.4c-2,0.9-3.8,2.2-5.3,3.8c-1.5,1.6-2.7,3.5-3.5,5.6c-0.8,2.2-1.3,4.5-1.3,6.9v0.1
		c0,2.5,0.4,4.8,1.3,7c0.8,2.2,2,4,3.5,5.6c1.5,1.6,3.3,2.9,5.3,3.8c2,0.9,4.2,1.4,6.6,1.4c3,0,5.5-0.5,7.7-1.6
		c2.1-1.1,4.2-2.6,6.3-4.6l3.2,3.1c-1.1,1.2-2.3,2.2-3.5,3.1c-1.2,0.9-2.5,1.7-3.9,2.4c-1.4,0.7-2.9,1.2-4.5,1.5
		C89.1,601.8,87.3,602,85.3,602z"/>
	<path d="M111.1,558h18.5c2.7,0,5,0.4,7.1,1.1c2.1,0.8,3.8,1.8,5.1,3.2c1.1,1.1,1.9,2.3,2.5,3.8c0.6,1.4,0.9,3,0.9,4.8v0.1
		c0,1.8-0.3,3.4-0.9,4.8c-0.6,1.4-1.4,2.7-2.4,3.7c-1,1-2.3,1.9-3.7,2.6c-1.4,0.7-3,1.2-4.7,1.5l13.3,17.7h-6l-12.5-16.8H116v16.8
		h-4.9V558z M129.2,580.1c1.6,0,3.1-0.2,4.4-0.6c1.4-0.4,2.5-1,3.5-1.8s1.8-1.7,2.3-2.8c0.6-1.1,0.8-2.3,0.8-3.7V571
		c0-2.7-1-4.8-2.9-6.3c-1.9-1.5-4.7-2.3-8.1-2.3H116v17.5H129.2z"/>
	<path d="M155.7,558H187v4.4h-26.4v14.8h23.6v4.4h-23.6v15.1h26.7v4.4h-31.5V558z"/>
	<path d="M211.9,601.8c-3.5,0-6.6-0.6-9.5-1.7c-2.9-1.1-5.6-2.9-8.2-5.2l3-3.6c2.3,2.1,4.5,3.6,6.9,4.6c2.3,1,5,1.5,8,1.5
		c2.9,0,5.3-0.7,7-2.1c1.7-1.4,2.6-3.1,2.6-5.3V590c0-1-0.2-1.9-0.5-2.7c-0.3-0.8-0.9-1.5-1.7-2.2c-0.8-0.7-2-1.3-3.4-1.8
		c-1.5-0.5-3.3-1-5.6-1.5c-2.5-0.5-4.6-1.2-6.5-1.9c-1.8-0.7-3.3-1.5-4.5-2.5c-1.2-1-2.1-2.1-2.7-3.5c-0.6-1.3-0.9-2.9-0.9-4.6v-0.1
		c0-1.7,0.3-3.2,1-4.7c0.7-1.4,1.7-2.7,3-3.7c1.3-1,2.8-1.9,4.5-2.5s3.6-0.9,5.7-0.9c3.2,0,5.9,0.4,8.3,1.3c2.4,0.9,4.7,2.2,6.9,4
		l-2.8,3.8c-2-1.6-4-2.8-6.1-3.6c-2-0.7-4.2-1.1-6.4-1.1c-2.8,0-5.1,0.7-6.7,2c-1.6,1.3-2.5,3-2.5,5v0.1c0,1,0.2,1.9,0.5,2.7
		c0.3,0.8,0.9,1.5,1.8,2.2c0.9,0.7,2.1,1.3,3.6,1.9c1.5,0.6,3.5,1.1,5.9,1.6c4.8,1.1,8.3,2.6,10.6,4.4c2.3,1.9,3.4,4.5,3.4,7.8v0.1
		c0,1.9-0.4,3.5-1.1,5c-0.7,1.5-1.7,2.8-3,3.9c-1.3,1.1-2.8,1.9-4.6,2.5C216,601.6,214,601.8,211.9,601.8z"/>
	<path d="M256.4,602c-3.1,0-6-0.6-8.6-1.7c-2.6-1.2-4.9-2.7-6.9-4.7c-1.9-2-3.4-4.4-4.5-7.1c-1.1-2.7-1.6-5.6-1.6-8.7v-0.1
		c0-3,0.5-5.9,1.6-8.6c1.1-2.7,2.6-5.1,4.5-7.1c1.9-2,4.2-3.6,6.9-4.8c2.7-1.2,5.6-1.8,8.8-1.8c2,0,3.8,0.2,5.3,0.5
		c1.6,0.3,3.1,0.8,4.4,1.4c1.4,0.6,2.6,1.3,3.8,2.2c1.2,0.8,2.3,1.8,3.3,2.8l-3.3,3.6c-1.9-1.7-3.8-3.1-6-4.3s-4.7-1.7-7.6-1.7
		c-2.4,0-4.6,0.5-6.6,1.4c-2,0.9-3.8,2.2-5.3,3.8c-1.5,1.6-2.7,3.5-3.5,5.6c-0.8,2.2-1.3,4.5-1.3,6.9v0.1c0,2.5,0.4,4.8,1.3,7
		c0.8,2.2,2,4,3.5,5.6c1.5,1.6,3.3,2.9,5.3,3.8c2,0.9,4.2,1.4,6.6,1.4c3,0,5.5-0.5,7.7-1.6c2.1-1.1,4.2-2.6,6.3-4.6l3.2,3.1
		c-1.1,1.2-2.3,2.2-3.5,3.1c-1.2,0.9-2.5,1.7-3.9,2.4c-1.4,0.7-2.9,1.2-4.5,1.5C260.1,601.8,258.3,602,256.4,602z"/>
	<path d="M282.2,558h31.2v4.4H287v14.8h23.6v4.4H287v15.1h26.7v4.4h-31.5V558z"/>
	<path d="M323.5,558h4.6l27.2,34.6V558h4.8v43.2h-3.9l-27.9-35.4v35.4h-4.8V558z"/>
	<path d="M383.7,562.5h-14.5V558h33.9v4.5h-14.5v38.7h-4.9V562.5z"/>
	<path d="M409,558h2.3l13.6,40.2l13-40.3h1.6l13,40.4l13.6-40.3h2.2l-14.9,43.5h-1.7l-13-39.7l-12.9,39.7H424L409,558z"/>
	<path d="M477.9,558h2.1v43.2h-2.1V558z"/>
	<path d="M493.3,558h1.9l31.6,39.6V558h2.1v43.2h-1.7l-31.9-39.9v39.9h-2.1V558z"/>
	<path d="M541.7,558h30.4v1.9h-28.3v18.6h25.6v1.9h-25.6v18.9h28.6v1.9h-30.7V558z"/>
</g>
</svg>
